# xmcd CD database file
#
# Track frame offsets:
#	150
#	14588
#	27173
#	46515
#	61356
#	77150
#	98700
#	113543
#	135214
#	145692
#	162414
#	177945
#	209645
#
# Disc length: 3005 seconds
#
# Revision: 1
# Processed by: cddbd v1.5.2PL0 Copyright (c) Steve Scherf et al.
# Submitted via: CDex 1.70beta2
#
DISCID=a20bbb0d
DTITLE=Dusk - The Quick Kick
DYEAR=2007
DGENRE=Country
TTITLE0=Chasing Our Own Tails
TTITLE1=Just Passing Through
TTITLE2=World To Discover
TTITLE3=I've Never
TTITLE4=Hindsight
TTITLE5=Instinct
TTITLE6=See You Later
TTITLE7=You Said
TTITLE8=Silly Little Thing
TTITLE9=On My Way
TTITLE10=Can't Choose
TTITLE11=Naturally
TTITLE12=Cliche Cowboy
EXTD=YEAR: 2007
EXTT0=
EXTT1=
EXTT2=
EXTT3=
EXTT4=
EXTT5=
EXTT6=
EXTT7=
EXTT8=
EXTT9=
EXTT10=
EXTT11=
EXTT12=
PLAYORDER=
